<svg width="16" height="16" viewBox="0 0 16 16" fill="none" xmlns="http://www.w3.org/2000/svg">
<g clip-path="url(#clip0_29_78)">
<path d="M6.68055 0.914502L0.42588 6.99951C0.153189 7.26489 0 7.62476 0 8C0 8.37524 0.153189 8.73511 0.42588 9.00049L6.68055 15.0855C6.81579 15.217 6.97632 15.3213 7.15299 15.3924C7.32965 15.4635 7.51898 15.5001 7.71017 15.5C7.90136 15.4999 8.09067 15.4632 8.26728 15.392C8.44389 15.3207 8.60435 15.2164 8.7395 15.0848C8.87464 14.9532 8.98182 14.797 9.05493 14.6252C9.12803 14.4533 9.16562 14.2691 9.16555 14.0831C9.16549 13.8971 9.12776 13.7129 9.05453 13.5411C8.98131 13.3693 8.87401 13.2132 8.73877 13.0817L4.96997 9.41512H14.5454C14.9312 9.41512 15.3012 9.26603 15.574 9.00064C15.8468 8.73525 16 8.37531 16 8C16 7.62469 15.8468 7.26475 15.574 6.99936C15.3012 6.73397 14.9312 6.58488 14.5454 6.58488H4.96997L8.73877 2.91831C8.87401 2.78683 8.98131 2.63072 9.05453 2.4589C9.12776 2.28708 9.16549 2.10291 9.16555 1.91691C9.16562 1.7309 9.12803 1.5467 9.05493 1.37483C8.98182 1.20296 8.87464 1.04678 8.7395 0.915209C8.60435 0.783638 8.44389 0.679251 8.26728 0.608009C8.09067 0.536767 7.90136 0.500066 7.71017 0.5C7.51898 0.499934 7.32965 0.536506 7.15299 0.607626C6.97632 0.678746 6.81579 0.783023 6.68055 0.914502Z" fill="currentColor"/>
</g>
<defs>
<clipPath id="clip0_29_78">
<rect width="16" height="16" fill="white"/>
</clipPath>
</defs>
</svg>
