<svg width="375" height="285" viewBox="0 0 375 285" fill="none" xmlns="http://www.w3.org/2000/svg">
<path d="M343.52 0.279985C335.754 0.524771 328.389 3.79037 322.989 9.3789C249.828 82.6962 194.432 143.526 125.589 213.539L49.9906 149.607C43.9594 144.471 36.1307 141.94 28.2307 142.576C20.3348 143.211 13.0067 146.956 7.87065 152.987C2.73518 159.024 0.203975 166.851 0.839442 174.747C1.47486 182.648 5.22491 189.971 11.2561 195.107L108.324 277.243C114.048 282.139 121.413 284.696 128.944 284.394C136.475 284.087 143.611 280.952 148.923 275.608C229.183 195.176 286.429 130.808 365.456 51.6078H365.461C371.3 45.9672 374.592 38.1919 374.581 30.0772C374.565 21.9575 371.248 14.1918 365.394 8.57183C359.534 2.94677 351.639 -0.0478813 343.524 0.274919L343.52 0.279985Z" fill="black"/>
</svg>
