<svg width="668" height="668" viewBox="0 0 668 668" fill="none" xmlns="http://www.w3.org/2000/svg">
<path d="M256.717 580.663C237.269 574.595 227.577 550.231 232.493 534.46L364.321 111.913C370.389 92.4652 391.071 81.6158 410.519 87.6838C429.967 93.7516 439.659 118.116 434.743 133.887L302.915 556.433C296.847 575.881 276.165 586.731 256.717 580.663Z" fill="black"/>
<path d="M129.157 185.676L13.668 301.165C-4.556 319.389 -4.556 348.941 13.668 367.165L129.157 482.655C142.829 496.327 164.985 496.327 178.657 482.655C192.329 468.983 192.329 446.827 178.657 433.155L79.668 334.165L178.657 235.176C192.329 221.504 192.329 199.348 178.657 185.676C164.985 172.004 142.829 172.004 129.157 185.676Z" fill="black"/>
<path d="M538.064 185.676L653.553 301.165C671.777 319.389 671.777 348.941 653.553 367.165L538.064 482.655C524.392 496.327 502.236 496.327 488.564 482.655C474.892 468.983 474.892 446.827 488.564 433.155L587.553 334.165L488.564 235.176C474.892 221.504 474.892 199.348 488.564 185.676C502.236 172.004 524.392 172.004 538.064 185.676Z" fill="black"/>
</svg>
