<svg width="1420" height="1013" viewBox="0 0 1420 1013" fill="none" xmlns="http://www.w3.org/2000/svg">
<path d="M235.237 305.983C234.533 309.154 231.89 310.916 227.308 311.268C222.727 311.268 217.794 310.211 212.508 308.097C207.222 305.983 203.346 303.34 200.879 300.169C198.412 296.645 199.117 292.945 202.993 289.069C206.87 285.194 215.503 281.494 228.894 277.97C295.497 266.695 360.866 257.005 425.001 248.9C437.335 247.491 446.673 246.081 453.016 244.672C459.712 243.263 464.822 240.972 468.346 237.801C472.222 234.277 476.098 228.816 479.975 221.416C486.318 210.493 492.837 199.57 499.532 188.646C500.942 186.18 502.352 183.713 503.761 181.247C558.382 89.9853 595.383 35.5454 614.765 17.9273C645.071 -9.90921 658.109 -5.32851 653.881 31.6694C646.833 79.943 622.165 139.844 579.878 211.374C579.878 211.726 579.702 212.255 579.349 212.959C573.006 222.826 570.011 228.816 570.363 230.93C570.716 233.044 574.768 233.573 582.521 232.515C583.931 232.515 585.164 232.515 586.221 232.515C590.097 232.163 593.974 231.987 597.85 231.987C685.596 226.349 775.809 223.883 868.488 224.587C874.479 224.587 878.355 225.997 880.117 228.816C881.879 231.282 881.703 233.749 879.589 236.215C877.474 238.329 873.246 239.21 866.902 238.858C767.528 237.096 671.148 241.677 577.764 252.6C574.592 252.952 571.773 253.305 569.306 253.657C564.02 253.657 559.792 254.362 556.62 255.771C553.449 257.181 550.101 260.704 546.577 266.342C502.528 333.996 456.364 397.597 408.086 457.146C360.161 516.695 320.164 561.093 288.096 590.339C286.334 592.1 284.925 593.334 283.868 594.038C282.81 594.743 281.929 595.272 281.225 595.624C280.52 595.976 279.815 596.505 279.11 597.21C278.405 597.914 277.525 598.971 276.467 600.381C275.41 601.79 274.001 604.081 272.239 607.252C194.007 731.988 115.247 856.371 35.9588 980.403C42.3019 980.403 45.2972 982.693 44.9448 987.274C44.2401 992.207 41.4209 996.611 36.4874 1000.49C20.9821 1012.12 10.2341 1015.64 4.2434 1011.06C-1.74728 1006.48 -1.39489 996.435 5.30058 980.931C23.625 952.038 41.9495 923.32 60.274 894.779C188.193 696.047 313.997 495.201 437.687 292.241C439.097 289.422 440.506 286.955 441.916 284.841C446.145 278.851 448.083 274.799 447.731 272.685C447.731 270.218 443.502 269.69 435.044 271.099C369.499 280.613 302.897 291.184 235.237 302.812C235.237 303.869 235.237 304.926 235.237 305.983ZM511.161 219.302C507.637 225.292 505.171 230.225 503.761 234.101C502.352 237.977 503.233 239.739 506.404 239.387C511.69 238.682 516.976 238.153 522.262 237.801C525.786 237.801 528.605 237.449 530.719 236.744C532.834 236.039 534.772 234.63 536.534 232.515C538.296 230.049 540.586 226.525 543.405 221.945C582.521 154.996 609.655 95.7992 624.808 44.3545C605.779 65.4961 572.83 115.531 525.962 194.46C523.848 197.984 521.733 201.508 519.619 205.031C516.8 209.612 513.981 214.369 511.161 219.302ZM477.86 274.799C465.879 294.531 453.369 315.32 440.33 337.167C408.967 391.431 375.49 445.694 339.898 499.958C321.574 527.442 322.807 529.732 343.598 506.829C396.81 444.813 451.959 368.879 509.047 279.027C512.923 272.332 515.566 267.752 516.976 265.285C518.385 262.466 518.385 260.881 516.976 260.528C515.919 259.823 513.628 259.647 510.104 260C509.752 260 509.223 260 508.518 260C507.814 260.352 506.933 260.528 505.875 260.528C499.885 260.881 494.599 261.938 490.018 263.699C485.437 265.109 481.384 268.809 477.86 274.799Z" fill="#EE2F33"/>
<path d="M504.29 670.677C479.622 694.638 456.364 703.447 434.516 697.104C413.02 690.762 402.624 672.086 403.329 641.079C404.034 609.718 426.058 568.845 469.403 518.457C485.965 500.486 499.18 490.092 509.047 487.273C517.152 484.454 523.319 484.806 527.548 488.33C531.776 491.501 531.953 498.02 528.076 507.886C520.676 515.638 514.685 520.395 510.104 522.157C505.523 523.918 501.823 524.623 499.004 524.271C497.594 524.271 496.185 524.447 494.775 524.799C493.718 524.799 492.661 525.504 491.604 526.913C458.126 566.73 437.687 598.795 430.287 623.108C423.239 647.421 424.296 663.806 433.459 672.263C442.621 681.072 454.955 681.424 470.46 673.32C477.508 669.091 485.437 661.163 494.246 649.535C503.056 637.907 510.28 626.456 515.919 615.18C516.976 613.418 517.857 612.009 518.562 610.952C519.619 609.542 520.147 608.309 520.147 607.252C520.147 606.195 519.266 604.962 517.504 603.552C511.161 597.21 505.699 588.929 501.118 578.711C496.537 568.14 495.656 558.626 498.475 550.169C501.294 544.532 506.58 542.065 514.333 542.77C522.086 543.474 529.486 547.527 536.534 554.926C543.582 562.326 547.282 573.425 547.634 588.224C548.339 598.795 552.039 606.195 558.734 610.423C565.43 614.299 572.83 615.709 580.935 614.651C589.04 613.242 595.736 610.071 601.022 605.138C605.603 600.909 608.774 599.852 610.536 601.966C612.651 603.728 612.474 606.9 610.008 611.48C607.541 616.061 602.079 620.289 593.621 624.165C580.23 629.451 569.835 631.389 562.435 629.979C555.387 628.57 550.101 626.632 546.577 624.165C544.11 622.051 541.82 621.17 539.705 621.523C537.591 621.523 535.477 623.637 533.362 627.865C529.838 634.208 525.257 641.607 519.619 650.064C514.333 658.52 509.223 665.392 504.29 670.677Z" fill="#EE2F33"/>
<path d="M583.05 305.983C582.345 309.154 579.702 310.916 575.121 311.268C570.54 311.268 565.606 310.211 560.32 308.097C555.034 305.983 551.158 303.34 548.691 300.169C546.225 296.645 546.929 292.945 550.806 289.069C554.682 285.194 563.316 281.494 576.707 277.97C643.309 266.695 708.678 257.005 772.813 248.9C785.147 247.491 794.486 246.081 800.829 244.672C807.524 243.263 812.634 240.972 816.158 237.801C820.034 234.277 823.91 228.816 827.787 221.416C834.13 210.493 840.649 199.57 847.345 188.646C848.754 186.18 850.164 183.713 851.573 181.247C906.194 89.9853 943.196 35.5454 962.577 17.9273C992.883 -9.90921 1005.92 -5.32851 1001.69 31.6694C994.645 79.943 969.978 139.844 927.69 211.374C927.69 211.726 927.514 212.255 927.162 212.959C920.819 222.826 917.823 228.816 918.176 230.93C918.528 233.044 922.581 233.573 930.333 232.515C931.743 232.515 932.976 232.515 934.033 232.515C937.91 232.163 941.786 231.987 945.662 231.987C1033.41 226.349 1123.62 223.883 1216.3 224.587C1222.29 224.587 1226.17 225.997 1227.93 228.816C1229.69 231.282 1229.52 233.749 1227.4 236.215C1225.29 238.329 1221.06 239.21 1214.71 238.858C1115.34 237.096 1018.96 241.677 925.576 252.6C922.404 252.952 919.585 253.305 917.119 253.657C911.833 253.657 907.604 254.362 904.432 255.771C901.261 257.181 897.913 260.704 894.389 266.342C850.34 333.996 804.176 397.597 755.899 457.146C707.973 516.695 667.976 561.093 635.909 590.339C634.147 592.1 632.737 593.334 631.68 594.038C630.623 594.743 629.742 595.272 629.037 595.624C628.332 595.976 627.627 596.505 626.923 597.21C626.218 597.914 625.337 598.971 624.28 600.381C623.222 601.79 621.813 604.081 620.051 607.252C541.82 731.988 463.06 856.371 383.771 980.403C390.114 980.403 393.11 982.693 392.757 987.274C392.052 992.207 389.233 996.611 384.3 1000.49C368.794 1012.12 358.046 1015.64 352.056 1011.06C346.065 1006.48 346.417 996.435 353.113 980.931C371.437 952.038 389.762 923.32 408.086 894.779C536.005 696.047 661.81 495.201 785.5 292.241C786.909 289.422 788.319 286.955 789.728 284.841C793.957 278.851 795.895 274.799 795.543 272.685C795.543 270.218 791.314 269.69 782.857 271.099C717.311 280.613 650.709 291.184 583.05 302.812C583.05 303.869 583.05 304.926 583.05 305.983ZM858.974 219.302C855.45 225.292 852.983 230.225 851.573 234.101C850.164 237.977 851.045 239.739 854.216 239.387C859.502 238.682 864.788 238.153 870.074 237.801C873.598 237.801 876.417 237.449 878.531 236.744C880.646 236.039 882.584 234.63 884.346 232.515C886.108 230.049 888.398 226.525 891.218 221.945C930.333 154.996 957.468 95.7992 972.621 44.3545C953.591 65.4961 920.642 115.531 873.774 194.46C871.66 197.984 869.545 201.508 867.431 205.031C864.612 209.612 861.793 214.369 858.974 219.302ZM825.672 274.799C813.691 294.531 801.181 315.32 788.143 337.167C756.78 391.431 723.302 445.694 687.71 499.958C669.386 527.442 670.619 529.732 691.411 506.829C744.622 444.813 799.772 368.879 856.859 279.027C860.736 272.332 863.379 267.752 864.788 265.285C866.198 262.466 866.198 260.881 864.788 260.528C863.731 259.823 861.44 259.647 857.916 260C857.564 260 857.035 260 856.331 260C855.626 260.352 854.745 260.528 853.688 260.528C847.697 260.881 842.411 261.938 837.83 263.699C833.249 265.109 829.196 268.809 825.672 274.799Z" fill="#EE2F33"/>
<path d="M898.618 490.444C918.352 494.672 926.281 503.129 922.404 515.814C918.528 528.499 908.309 541.713 891.746 555.455C875.184 569.197 857.916 579.592 839.944 586.639C822.325 593.334 809.462 592.981 801.357 585.582C795.719 592.629 789.2 601.966 781.799 613.594C774.752 624.87 770.699 634.912 769.642 643.721C769.642 657.111 778.804 662.925 797.129 661.163C815.453 659.401 837.301 653.587 862.674 643.721C888.046 633.855 911.304 623.813 932.448 613.594C953.591 603.024 966.982 595.8 972.621 591.924C976.849 589.105 980.726 587.872 984.249 588.224C988.126 588.577 989.712 590.515 989.007 594.038C988.654 597.562 984.073 602.495 975.263 608.838C964.692 616.237 946.72 626.808 921.347 640.55C896.327 653.94 869.722 665.568 841.53 675.434C813.339 685.3 789.376 688.647 769.642 685.476C749.908 682.305 740.393 667.858 741.098 642.136C742.86 624.87 752.727 604.257 770.699 580.296C788.671 556.336 809.462 535.37 833.073 517.4C857.035 499.077 878.884 490.092 898.618 490.444ZM888.046 519.514C884.875 520.571 879.412 523.566 871.66 528.499C863.907 533.08 855.626 538.365 846.816 544.355C838.359 550.346 830.958 555.983 824.615 561.269C818.272 566.554 814.572 570.43 813.515 572.897C812.458 575.363 815.629 575.363 823.03 572.897C833.249 569.021 845.759 562.326 860.559 552.812C875.36 542.946 886.637 533.961 894.389 525.856C897.913 521.98 899.323 519.514 898.618 518.457C898.266 517.4 894.742 517.752 888.046 519.514Z" fill="#EE2F33"/>
<path d="M1171.37 637.379C1174.19 637.731 1179.3 634.384 1186.7 627.337C1194.45 619.937 1203.44 610.776 1213.66 599.852C1230.57 581.53 1248.02 564.264 1265.99 548.055C1284.31 531.847 1299.64 523.566 1311.98 523.214C1323.6 524.975 1330.12 531.67 1331.53 543.298C1333.3 554.574 1333.47 567.083 1332.06 580.825C1331 589.634 1330.48 597.738 1330.48 605.138C1330.83 612.185 1332.59 617.294 1335.76 620.465C1341.75 626.456 1364.66 617.647 1404.48 594.038C1409.41 591.219 1413.29 590.339 1416.11 591.396C1419.28 592.453 1420.51 594.567 1419.81 597.738C1419.46 600.909 1416.28 604.257 1410.29 607.78C1384.22 623.989 1364.13 634.384 1350.03 638.964C1335.94 643.193 1325.01 641.783 1317.26 634.736C1304.22 622.051 1299.47 599.676 1302.99 567.611C1303.34 560.212 1302.46 556.688 1300.35 557.04C1298.58 557.04 1294.53 559.683 1288.19 564.969C1287.48 565.673 1286.78 566.202 1286.07 566.554C1275.5 575.363 1263.52 586.286 1250.13 599.324C1233.57 615.532 1217.53 629.803 1202.03 642.136C1186.88 654.116 1174.72 658.697 1165.56 655.878C1153.22 650.592 1146.88 640.55 1146.53 625.751C1146.17 610.952 1148.82 594.919 1154.46 577.654C1160.45 560.035 1166.44 544.355 1172.43 530.613C1175.25 523.566 1177.54 517.752 1179.3 513.171C1181.77 504.362 1177.54 503.305 1166.61 510C1155.69 516.695 1141.42 527.442 1123.8 542.241C1106.18 556.688 1088.56 571.84 1070.94 587.696C1053.67 603.2 1039.75 615.709 1029.18 625.222C1023.19 630.508 1019.49 634.031 1018.08 635.793C1016.32 637.203 1013.67 639.317 1010.15 642.136C1003.45 648.478 994.997 655.878 984.778 664.334C974.559 673.143 964.692 680.543 955.177 686.533C945.662 692.523 938.438 694.638 933.505 692.876C922.933 687.238 921.7 676.139 929.805 659.578C950.948 616.589 975.263 576.42 1002.75 539.07C1016.85 518.985 1030.41 498.725 1043.45 478.288C1043.8 477.583 1043.98 477.054 1043.98 476.702C1043.98 476.35 1043.63 475.821 1042.92 475.116C1042.92 475.116 1042.75 474.94 1042.39 474.588C1039.93 472.121 1039.05 469.479 1039.75 466.66C1040.46 463.841 1042.22 460.846 1045.04 457.674C1046.8 455.913 1049.97 453.446 1054.55 450.275C1059.49 447.104 1064.42 444.989 1069.35 443.932C1074.29 442.523 1077.81 443.58 1079.92 447.104C1082.04 450.627 1081.16 458.027 1077.28 469.302C1055.43 508.415 1030.59 547.879 1002.75 587.696C996.407 597.21 990.24 606.547 984.249 615.709C975.792 628.394 972.621 634.384 974.735 633.679C976.849 632.974 982.488 628.57 991.65 620.465C994.117 618.351 996.583 616.237 999.05 614.123C1022.66 593.334 1047.33 572.368 1073.05 551.226C1099.13 529.732 1122.92 512.29 1144.41 498.901C1165.91 485.159 1181.94 479.697 1192.51 482.516C1206.96 489.211 1209.61 506.124 1200.44 533.256C1199.74 535.018 1198.5 538.189 1196.74 542.77C1193.57 552.284 1189.34 564.264 1184.06 578.711C1179.12 593.157 1175.07 606.371 1171.9 618.351C1169.08 629.979 1168.9 636.322 1171.37 637.379Z" fill="#EE2F33"/>
</svg>
