<svg width="2300" height="691" viewBox="0 0 2300 691" fill="none" xmlns="http://www.w3.org/2000/svg">
<path fill-rule="evenodd" clip-rule="evenodd" d="M183.75 0H306C306 86.6206 306 129.931 332.91 156.84C359.819 183.75 403.129 183.75 489.75 183.75V0H490V30C490 15.8579 490 8.7868 494.393 4.3934C498.787 0 505.858 0 520 0H950C964.142 0 971.213 0 975.607 4.3934C980 8.7868 980 15.8579 980 30V183.75C1066.62 183.75 1109.93 183.75 1136.84 156.84C1163.75 129.931 1163.75 86.6206 1163.75 0H1286C1286 86.6206 1286 129.931 1312.91 156.84C1339.74 183.673 1383.21 183.75 1470 183.75V9.99999C1470 4.47715 1474.48 0 1480 0H1957.82C1966.74 0 1971.2 10.7812 1964.89 17.078L1766.92 214.657C1755.9 203.741 1740.74 197 1724 197C1690.31 197 1663 224.311 1663 258C1663 274.695 1669.71 289.823 1680.57 300.838L1487.06 493.969C1480.76 500.259 1470 495.796 1470 486.891V306C1383.21 306 1339.74 306.077 1312.91 332.91C1286.08 359.742 1286 403.213 1286 490H1163.75C1163.75 403.213 1163.67 359.742 1136.84 332.91C1109.93 306 1066.62 306 980 306V460C980 474.142 980 481.213 975.607 485.607C971.213 490 964.142 490 950 490H520C505.858 490 498.787 490 494.393 485.607C490 481.213 490 474.142 490 460V490H489.75V306C403.129 306 359.819 306 332.91 332.91C306.077 359.742 306 403.213 306 490H183.75C183.75 403.213 183.673 359.742 156.84 332.91C129.931 306 86.6206 306 0 306V183.75C86.6206 183.75 129.931 183.75 156.84 156.84C183.75 129.931 183.75 86.6206 183.75 0ZM674 184H796.25V306.25H674V184ZM1844.32 510.999L1903 510.999L2161.7 510.999L2161.73 510.999H2285C2293.28 510.999 2300 504.283 2300 495.999V57.1082C2300 43.7593 2283.87 37.0602 2274.41 46.48L2003.08 316.71L1914.33 228.245C1913.58 227.394 1912.73 226.637 1911.82 225.983C1909.11 223.979 1906.03 223.078 1903 223.1C1899.97 223.078 1896.89 223.979 1894.18 225.983C1893.26 226.637 1892.42 227.394 1891.67 228.245L1633.71 485.375C1624.23 494.818 1630.92 510.999 1644.3 510.999L1844.29 510.999L1844.32 510.999ZM1460.51 663.439C1454.39 667.759 1450.55 672.559 1449.71 678.679H1486.79V689.119H1435.31V684.559C1435.31 671.719 1442.39 661.999 1451.51 655.759L1463.51 647.719C1468.67 644.119 1474.43 640.039 1474.43 632.839C1474.43 626.239 1469.63 621.559 1462.43 621.559C1453.19 621.559 1448.63 629.239 1448.15 635.599H1435.43C1436.03 623.599 1445.15 610.999 1463.03 610.999C1477.55 610.999 1487.15 619.399 1487.15 632.479C1487.15 645.108 1478.16 651.349 1473.8 654.374L1473.71 654.439L1460.51 663.439ZM647.992 690.319C633.952 690.319 631.552 681.439 631.552 674.599V638.959H618.592V629.119H622.792C629.872 629.119 632.512 626.599 632.512 620.119V612.799H643.672V629.119H658.912V638.959H643.672V672.919C643.672 676.879 645.112 680.479 651.472 680.479C653.392 680.479 655.552 680.119 657.352 679.519V688.999C655.072 689.599 651.952 690.319 647.992 690.319ZM691.677 690.319C674.157 690.319 661.077 677.119 661.077 659.119C661.077 640.879 674.037 627.919 691.677 627.919C709.317 627.919 722.517 640.999 722.517 659.119C722.517 677.239 709.317 690.319 691.677 690.319ZM691.677 679.639C702.837 679.639 710.397 670.279 710.397 659.119C710.397 647.839 702.837 638.599 691.677 638.599C680.517 638.599 673.197 647.839 673.197 659.119C673.197 670.279 680.517 679.639 691.677 679.639ZM737.56 674.599C737.56 681.439 739.96 690.319 754 690.319C757.96 690.319 761.08 689.599 763.36 688.999V679.519C761.56 680.119 759.4 680.479 757.48 680.479C751.12 680.479 749.68 676.879 749.68 672.919V638.959H764.92V629.119H749.68V612.799H738.52V620.119C738.52 626.599 735.88 629.119 728.8 629.119H724.6V638.959H737.56V674.599ZM823.725 658.279C823.725 659.245 823.647 660.212 823.554 661.367L823.546 661.474C823.537 661.586 823.528 661.698 823.519 661.813C823.508 661.952 823.496 662.094 823.485 662.239H779.085C779.685 672.919 786.165 680.359 796.725 680.359C804.285 680.359 809.805 677.239 811.725 671.119H823.485C820.965 683.119 810.885 690.319 796.725 690.319C779.445 690.319 767.085 678.199 767.085 659.719C767.085 640.159 779.925 627.919 796.245 627.919C810.885 627.919 823.725 637.639 823.725 658.279ZM796.245 637.879C786.765 637.879 780.405 644.839 779.205 653.599H811.845C811.725 644.359 805.485 637.879 796.245 637.879ZM842.6 629.119H831.56V689.119H843.8V652.759C843.8 643.039 850.28 638.599 856.28 638.599C862.64 638.599 867.8 643.159 867.8 652.279V689.119H880.04V652.999C880.04 644.359 885.2 638.599 892.64 638.599C898.88 638.599 904.16 642.679 904.16 651.679V689.119H916.4V649.279C916.4 634.999 908.24 627.919 896.48 627.919C886.16 627.919 880.88 633.079 877.88 638.119H877.04C875.12 633.679 870.68 627.919 860.96 627.919C852.68 627.919 847.76 631.759 844.64 636.199H843.8L842.6 629.119ZM1286.95 658.279C1286.95 659.245 1286.87 660.212 1286.78 661.367C1286.76 661.646 1286.74 661.935 1286.71 662.239H1242.31C1242.91 672.919 1249.39 680.359 1259.95 680.359C1267.51 680.359 1273.03 677.239 1274.95 671.119H1286.71C1284.19 683.119 1274.11 690.319 1259.95 690.319C1242.67 690.319 1230.31 678.199 1230.31 659.719C1230.31 640.159 1243.15 627.919 1259.47 627.919C1274.11 627.919 1286.95 637.639 1286.95 658.279ZM1259.47 637.879C1249.99 637.879 1243.63 644.839 1242.43 653.599H1275.07C1274.95 644.359 1268.71 637.879 1259.47 637.879ZM1292.87 670.519C1293.47 682.279 1301.51 690.319 1317.47 690.319C1329.47 690.319 1339.55 685.039 1339.55 673.039C1339.55 661.639 1331.03 657.079 1321.79 654.559L1317.23 653.359C1311.35 651.679 1306.43 650.119 1306.43 644.839C1306.43 639.919 1310.63 637.279 1315.91 637.279C1322.15 637.279 1325.99 640.639 1326.59 645.439H1338.35C1337.75 636.559 1330.91 627.919 1315.79 627.919C1304.51 627.919 1294.67 634.279 1294.67 645.439C1294.67 656.959 1303.91 660.199 1311.35 662.239L1316.03 663.439C1322.27 665.119 1327.79 667.399 1327.79 673.399C1327.79 678.799 1322.87 680.959 1317.35 680.959C1310.75 680.959 1305.35 678.199 1304.63 670.519H1292.87ZM1370.91 690.319C1356.87 690.319 1354.47 681.439 1354.47 674.599V638.959H1341.51V629.119H1345.71C1352.79 629.119 1355.43 626.599 1355.43 620.119V612.799H1366.59V629.119H1381.83V638.959H1366.59V672.919C1366.59 676.879 1368.03 680.479 1374.39 680.479C1376.31 680.479 1378.47 680.119 1380.27 679.519V688.999C1377.99 689.599 1374.87 690.319 1370.91 690.319ZM1385.07 681.919C1385.07 686.119 1388.67 689.719 1392.99 689.719C1397.31 689.719 1400.79 686.119 1400.79 681.919C1400.79 677.479 1397.31 673.999 1392.99 673.999C1388.67 673.999 1385.07 677.479 1385.07 681.919ZM1495.75 650.599C1495.75 677.599 1507.87 690.319 1525.03 690.319C1542.07 690.319 1553.95 677.839 1553.95 650.839C1553.95 623.959 1542.19 610.999 1525.03 610.999C1507.87 610.999 1495.75 623.959 1495.75 650.599ZM1540.99 650.719C1540.99 670.999 1534.27 679.639 1525.03 679.639C1515.91 679.639 1508.71 671.359 1508.71 650.719C1508.71 630.199 1515.91 621.679 1525.03 621.679C1534.15 621.679 1540.99 630.319 1540.99 650.719ZM1587.84 663.439C1581.72 667.759 1577.88 672.559 1577.04 678.679H1614.12V689.119H1562.64V684.559C1562.64 671.719 1569.72 661.999 1578.84 655.759L1590.84 647.719C1596 644.119 1601.76 640.039 1601.76 632.839C1601.76 626.239 1596.96 621.559 1589.76 621.559C1580.52 621.559 1575.96 629.239 1575.48 635.599H1562.76C1563.36 623.599 1572.48 610.999 1590.36 610.999C1604.88 610.999 1614.48 619.399 1614.48 632.479C1614.48 645.108 1605.49 651.349 1601.14 654.374L1601.04 654.439L1587.84 663.439ZM1681.41 671.839V662.359H1667.97V612.319H1655.25L1620.21 665.719V671.839H1656.21V689.119H1667.97V671.839H1681.41ZM1656.21 662.359H1634.49L1655.37 628.879H1656.21V662.359Z" fill="white"/>
</svg>
